<svg xmlns="http://www.w3.org/2000/svg" width="640" height="640" version="1.1"><g style="fill:#333"><path d="M 187 230 C 175 230 165 240 165 252 L 165 300 L 165 408 C 165 420 175 430 187 430 L 463 430 C 475 430 485 420 485 408 L 485 300 L 485 252 C 485 240 475 230 463 230 L 187 230 z M 360 256 A 70 72 0 0 1 430 328 A 70 72 0 0 1 360 400 A 70 72 0 0 1 290 328 A 70 72 0 0 1 360 256 z"/><circle cx="360" cy="330" r="41"/><path d="m205 225 5-10 20 0 5 10-30 0"/><path d="M285 200L270 225 376 225 361 200 285 200zM310 205L337 205 337 218 310 218 310 205z"/><path d="m405 225 5-10 20 0 5 10-30 0"/></g></svg>