<?xml version="1.0" encoding="UTF-8" standalone="no"?>
<!-- Created with Inkscape (http://www.inkscape.org/) -->

<svg
   xmlns:dc="http://purl.org/dc/elements/1.1/"
   xmlns:cc="http://creativecommons.org/ns#"
   xmlns:rdf="http://www.w3.org/1999/02/22-rdf-syntax-ns#"
   xmlns:svg="http://www.w3.org/2000/svg"
   xmlns="http://www.w3.org/2000/svg"
   xmlns:sodipodi="http://sodipodi.sourceforge.net/DTD/sodipodi-0.dtd"
   xmlns:inkscape="http://www.inkscape.org/namespaces/inkscape"
   width="640"
   height="640"
   id="svg2"
   version="1.1"
   inkscape:version="0.91 r13725"
   sodipodi:docname="camera_original.svg">
  <defs
     id="defs4" />
  <sodipodi:namedview
     id="base"
     pagecolor="#ffffff"
     bordercolor="#666666"
     borderopacity="1.0"
     inkscape:pageopacity="0.0"
     inkscape:pageshadow="2"
     inkscape:zoom="1.05"
     inkscape:cx="491"
     inkscape:cy="309"
     inkscape:document-units="px"
     inkscape:current-layer="layer1"
     showgrid="true"
     fit-margin-top="0"
     fit-margin-left="0"
     fit-margin-right="0"
     fit-margin-bottom="0"
     gridtolerance="10"
     inkscape:window-width="1920"
     inkscape:window-height="1056"
     inkscape:window-x="0"
     inkscape:window-y="24"
     inkscape:window-maximized="1">
    <inkscape:grid
       type="xygrid"
       id="grid3768"
       empspacing="5"
       visible="true"
       enabled="true"
       snapvisiblegridlinesonly="true" />
  </sodipodi:namedview>
  <metadata
     id="metadata7">
    <rdf:RDF>
      <cc:Work
         rdf:about="">
        <dc:format>image/svg+xml</dc:format>
        <dc:type
           rdf:resource="http://purl.org/dc/dcmitype/StillImage" />
        <dc:title />
      </cc:Work>
    </rdf:RDF>
  </metadata>
  <g
     inkscape:label="Layer 1"
     inkscape:groupmode="layer"
     id="layer1"
     transform="translate(-40,-40)">
    <path
       style="opacity:1;fill:#333333;fill-opacity:1;stroke:#46335c;stroke-width:0.20999999999999999;stroke-linecap:round;stroke-linejoin:round;stroke-miterlimit:4;stroke-opacity:1;stroke-dasharray:none"
       d="M 187 230 C 175 230 165 240 165 252 L 165 300 L 165 408 C 165 420 175 430 187 430 L 463 430 C 475 430 485 420 485 408 L 485 300 L 485 252 C 485 240 475 230 463 230 L 187 230 z M 360 256 A 70 72.5 0 0 1 430 328 A 70 72.5 0 0 1 360 400 A 70 72.5 0 0 1 290 328 A 70 72.5 0 0 1 360 256 z "
       transform="translate(40,40)"
       id="rect2996" />
    <circle
       style="opacity:1;fill:#333333;fill-opacity:1;stroke:none;stroke-width:33.33;stroke-linecap:butt;stroke-linejoin:round;stroke-miterlimit:4;stroke-dasharray:none;stroke-opacity:1"
       id="path3770"
       cx="401"
       cy="369"
       r="41" />
    <path
       style="fill:#333333;stroke:#333333;stroke-width:1px;stroke-linecap:butt;stroke-linejoin:round;stroke-opacity:1;fill-opacity:1"
       d="m 205,225 5,-10 20,0 5,10 -30,0"
       id="path3780"
       inkscape:connector-curvature="0"
       transform="translate(40,40)" />
    <path
       style="fill:#333333;stroke:#333333;stroke-width:1px;stroke-linecap:butt;stroke-linejoin:round;stroke-opacity:1;fill-opacity:1;opacity:1"
       d="M 285 200 L 270 225 L 376 225 L 361 200 L 285 200 z M 310 205 L 337 205 L 337 218 L 310 218 L 310 205 z "
       id="path3782"
       transform="translate(40,40)" />
    <path
       inkscape:connector-curvature="0"
       id="path2996"
       d="m 455,265 5,-10 20,0 5,10 -30,0"
       style="fill:#333333;fill-opacity:1;stroke:#333333;stroke-width:1px;stroke-linecap:butt;stroke-linejoin:round;stroke-opacity:1" />
  </g>
</svg>
