<svg xmlns:osb="http://www.openswatchbook.org/uri/2009/osb" xmlns:dc="http://purl.org/dc/elements/1.1/" xmlns:cc="http://creativecommons.org/ns#" xmlns:rdf="http://www.w3.org/1999/02/22-rdf-syntax-ns#" xmlns:svg="http://www.w3.org/2000/svg" xmlns="http://www.w3.org/2000/svg" xmlns:xlink="http://www.w3.org/1999/xlink" xmlns:sodipodi="http://sodipodi.sourceforge.net/DTD/sodipodi-0.dtd" xmlns:inkscape="http://www.inkscape.org/namespaces/inkscape" width="64" height="64" version="1.1" inkscape:version="0.48.4 r9939" inkscape:export-filename="/home/francisco/basket.png" inkscape:export-xdpi="90" inkscape:export-ydpi="90"><defs><linearGradient osb:paint="solid"><stop style="stop-color:#333333;stop-opacity:1;" offset="0"/></linearGradient></defs><metadata><rdf:RDF><cc:Work rdf:about=""><dc:format>image/svg+xml</dc:format><dc:type rdf:resource="http://purl.org/dc/dcmitype/StillImage"/><dc:title/></cc:Work></rdf:RDF></metadata><g inkscape:label="Layer 1" inkscape:groupmode="layer" transform="translate(0,-988.4)"><path style="fill:#333333;fill-opacity:1;stroke:none" d="m 10.8 1018 c -0.5 0 -0.8 1 -0.8 1 l 0 22 c 0 1 0.4 1 0.8 1 l 42.3 0 c 0.5 0 0.8 0 0.8 -1 l 0 -22 c 0 0 -0.4 -1 -0.8 -1 l -16.1 0 0 5 c 0 0 -0.4 1 -0.8 1 l -8.4 0 c -0.5 0 -0.8 -1 -0.8 -1 l 0 -5 -16.1 0 z" inkscape:connector-curvature="0"/><rect style="fill:#333333;fill-opacity:1;stroke:none" width="8" height="24.5" x="28" y="998.4" ry="0.8"/></g></svg>