<svg xmlns:svg="http://www.w3.org/2000/svg" xmlns="http://www.w3.org/2000/svg" width="640" height="640" version="1.1"><style>.s0{fill:#333;stroke-linejoin:round;stroke:#333;}</style><g transform="translate(-40,-40)"><path d="M187 230C175 230 165 240 165 252L165 300 165 408C165 420 175 430 187 430L463 430C475 430 485 420 485 408L485 300 485 252C485 240 475 230 463 230L187 230z" transform="translate(40,40)" style="fill:#333;stroke-linecap:round;stroke-linejoin:round;stroke-width:0.2;stroke:#46335c"/><path d="m408 325c0 39-30 70-68 70-38 0-68-31-68-70 0-39 30-70 68-70 38 0 68 31 68 70z" transform="matrix(0.82,0,0,0.82,120,100)" style="fill:none;stroke-linejoin:round;stroke-width:33.3;stroke:#fff"/><path d="m205 225 5-10 20 0 5 10-30 0" transform="translate(40,40)" class="s0"/><path d="M285 200L270 225 376 225 361 200 285 200zM310 205L337 205 337 218 310 218 310 205z" transform="translate(40,40)" class="s0"/><path d="m455 265 5-10 20 0 5 10-30 0" class="s0"/></g></svg>