<svg xmlns="http://www.w3.org/2000/svg" xmlns:xlink="http://www.w3.org/1999/xlink" width="192" height="108" viewBox="0 0 192 108"><g transform="translate(0 -944.362)"><g id="a" fill-rule="evenodd"><path d="M18.5 1037.4l3.6-12 4 12z" fill="#009d25"/><path d="M22 1025.4l-2 12h-1.5z" fill="#006919"/></g><use xlink:href="#a" id="c" transform="translate(7 -3.75)" width="100%" height="100%"/><use xlink:href="#b" transform="translate(5.5 -4.25)" width="100%" height="100%"/><use xlink:href="#c" id="b" transform="translate(4.25 5.25)" width="100%" height="100%"/></g><use xlink:href="#d" transform="translate(69.827 -43.664)" width="100%" height="100%"/><g id="f" fill-rule="evenodd"><path d="M-47.8 8.2l-30 70h60z" fill="#5d2f60"/><path d="M-77.8 78.2l30-70-20 70z" fill="#451448"/></g><use xlink:href="#e" id="d" transform="translate(-22.097 31.113)" width="100%" height="100%" fill="none"/><use xlink:href="#f" transform="translate(216.02 39.244)" width="100%" height="100%"/><use xlink:href="#f" id="e" transform="translate(196.95 32.102)" width="100%" height="100%"/><use xlink:href="#g" transform="translate(18.385 13.08)" width="100%" height="100%"/><use xlink:href="#f" id="g" transform="translate(61.872 23.688)" width="100%" height="100%"/><g fill-rule="evenodd"><path d="M-5 76.2S83 62 119 115.4H-5z" fill="#78bb37"/><path d="M206 78.7S117 57.3 71 115c69 .4 101.8 3 134.4 3z" fill="#78d437"/></g><g id="h" fill-rule="evenodd"><path d="M-47.2 65.3l3.5-12 3.6 12z" fill="#009d25"/><path d="M-43.7 53.3l-2 12h-1.5z" fill="#006919"/></g><use xlink:href="#h" id="i" transform="translate(212.34 18.67)" width="100%" height="100%"/><use xlink:href="#i" id="j" transform="translate(-7.986 .068)" width="100%" height="100%"/><use xlink:href="#j" id="k" transform="translate(3.876 8.215)" width="100%" height="100%"/><use xlink:href="#k" transform="translate(7.918 -2.98)" width="100%" height="100%"/><use xlink:href="#j" transform="translate(-4.33 5.834)" width="100%" height="100%"/><use xlink:href="#h" transform="translate(63.64 12.02)" width="100%" height="100%"/><use xlink:href="#h" transform="translate(73.186 13.08)" width="100%" height="100%"/><use xlink:href="#h" transform="translate(68.236 17.678)" width="100%" height="100%"/><use xlink:href="#h" transform="translate(58.16 14.85)" width="100%" height="100%"/></svg>