<svg xmlns="http://www.w3.org/2000/svg" xmlns:xlink="http://www.w3.org/1999/xlink" width="64" height="48" viewBox="0 0 64 48"><path fill="#b9dbff" d="M0 0h64v48H0z"/><g transform="translate(0 -60)"><g id="b" fill-rule="evenodd"><path d="M-57.7 34l-30 70h60z" fill="#5d2f60"/><path d="M-87.7 104l30-70-20 70z" fill="#451448"/></g><g fill="none" fill-rule="evenodd"><path d="M54 68l-30 70h60z" fill="#5d2f60"/><path d="M24 138l30-70-20 70z" fill="#451448"/></g><use xlink:href="#a" transform="translate(10.885 4.58)" width="100%" height="100%"/><use xlink:href="#b" id="a" transform="translate(69.77 31.88)" width="100%" height="100%"/></g><path d="M-20.4 33.7s88-14.2 124 39.2h-124z" fill="#78bb37" fill-rule="evenodd"/><g transform="translate(0 -60)"><g id="c" fill-rule="evenodd"><path d="M-57 91l3.4-12 3.6 12z" fill="#009d25"/><path d="M-53.6 79l-2 12H-57z" fill="#006919"/></g><use xlink:href="#c" id="d" transform="translate(74.268 7.567)" width="100%" height="100%"/><use xlink:href="#d" id="e" transform="translate(-7.986 .068)" width="100%" height="100%"/><use xlink:href="#e" id="f" transform="translate(3.876 8.215)" width="100%" height="100%"/><use xlink:href="#f" transform="translate(7.918 -2.98)" width="100%" height="100%"/><use xlink:href="#e" transform="translate(-4.33 5.834)" width="100%" height="100%"/></g></svg>