<svg xmlns="http://www.w3.org/2000/svg" viewBox="0 0 192 108"><path d="m18.5 93.04 3.6-12 4 12z" fill="#009d25"/><path d="m22 81.04-2 12-1.5 0z" fill="#006919"/><path d="m25.5 89.29 3.6-12 4 12z" fill="#009d25"/><path d="m29 77.29-2 12-1.5 0z" fill="#006919"/><path d="m35.25 90.29 3.6-12 4 12z" fill="#009d25"/><path d="m38.75 78.29-2 12-1.5 0z" fill="#006919"/><path d="m29.75 94.54 3.6-12 4 12z" fill="#009d25"/><path d="m33.25 82.54-2 12-1.5 0z" fill="#006919"/><path d="m196.88 27.75-30 70 60 0z" fill="#5d2f60"/><path d="m166.88 97.75 30-70-20 70z" fill="#451448"/><path d="m127.05 71.42-30 70 60 0z" fill="#5d2f60"/><path d="m97.05 141.42 30-70-20 70z" fill="#451448"/><path d="m168.22 47.44-30 70 60 0z" fill="#5d2f60"/><path d="m138.22 117.44 30-70-20 70z" fill="#451448"/><path d="m149.15 40.3-30 70 60 0z" fill="#5d2f60"/><path d="m119.15 110.3 30-70-20 70z" fill="#451448"/><path d="m32.46 44.97-30 70 60 0z" fill="#5d2f60"/><path d="m2.46 114.97 30-70-20 70z" fill="#451448"/><path d="m14.07 31.89-30 70 60 0z" fill="#5d2f60"/><path d="m-15.93 101.89 30-70-20 70z" fill="#451448"/><path d="m-5 76.2c0 0 88-14.2 124 39.2l-124 0z" fill="#78bb37"/><path d="m206 78.7c0 0-89-21.4-135 36.3 69 0.4 101.8 3 134.4 3z" fill="#78d437"/><path d="m165.14 83.97 3.5-12 3.6 12z" fill="#009d25"/><path d="m168.64 71.97-2 12-1.5 0z" fill="#006919"/><path d="m157.15 84.04 3.5-12 3.6 12z" fill="#009d25"/><path d="m160.65 72.04-2 12-1.5 0z" fill="#006919"/><path d="m161.03 92.25 3.5-12 3.6 12z" fill="#009d25"/><path d="m164.53 80.25-2 12-1.5 0z" fill="#006919"/><path d="m168.95 89.27 3.5-12 3.6 12z" fill="#009d25"/><path d="m172.45 77.27-2 12-1.5 0z" fill="#006919"/><path d="m152.82 89.87 3.5-12 3.6 12z" fill="#009d25"/><path d="m156.32 77.87-2 12-1.5 0z" fill="#006919"/><path d="m16.44 77.32 3.5-12 3.6 12z" fill="#009d25"/><path d="m19.94 65.32-2 12-1.5 0z" fill="#006919"/><path d="m25.99 78.38 3.5-12 3.6 12z" fill="#009d25"/><path d="m29.49 66.38-2 12-1.5 0z" fill="#006919"/><path d="m21.04 82.98 3.5-12 3.6 12z" fill="#009d25"/><path d="m24.54 70.98-2 12-1.5 0z" fill="#006919"/><path d="m10.96 80.15 3.5-12 3.6 12z" fill="#009d25"/><path d="m14.46 68.15-2 12-1.5 0z" fill="#006919"/></svg>
